<svg xmlns="http://www.w3.org/2000/svg" width="12.918" height="11.924" viewBox="0 0 12.918 11.924">
  <g id="noun-date-7670738" transform="translate(0.101 -3.81)">
    <path id="Path_33" data-name="Path 33" d="M3.209,3.91a.2.2,0,0,0-.2.2v.521H1.5A1.5,1.5,0,0,0,0,6.132v8a1.5,1.5,0,0,0,1.5,1.5h9.716a1.5,1.5,0,0,0,1.5-1.5v-8a1.5,1.5,0,0,0-1.5-1.5H9.707V4.11h0a.2.2,0,0,0-.058-.141.2.2,0,0,0-.282,0,.2.2,0,0,0-.058.142v.521h-5.9V4.11a.2.2,0,0,0-.2-.2ZM1.5,5.028H3.011v.519a.2.2,0,0,0,.058.141.2.2,0,0,0,.338-.141V5.028h5.9v.519a.2.2,0,0,0,.058.142.2.2,0,0,0,.282,0,.2.2,0,0,0,.058-.141V5.028h1.509a1.1,1.1,0,0,1,1.1,1.1v.829H.4V6.132a1.1,1.1,0,0,1,1.1-1.1ZM.4,7.359H12.32v6.772a1.1,1.1,0,0,1-1.1,1.1H1.5a1.1,1.1,0,0,1-1.1-1.1Z" fill="#9192a0" stroke="#9192a0" stroke-width="0.2"/>
  </g>
</svg>
