<svg xmlns="http://www.w3.org/2000/svg" width="11.963" height="8.374" viewBox="0 0 11.963 8.374">
  <g id="noun-mail-650805" transform="translate(-10 -22)">
    <g id="Group_2843" data-name="Group 2843" transform="translate(10 22)">
      <path id="Path_70" data-name="Path 70" d="M10.9,974.362a.9.9,0,0,0-.477.135l5.122,4.458a.622.622,0,0,0,.869,0l5.131-4.458a.9.9,0,0,0-.477-.135Zm-.846.607a.9.9,0,0,0-.051.29v6.58a.9.9,0,0,0,.9.9H21.066a.9.9,0,0,0,.9-.9v-6.58a.9.9,0,0,0-.051-.29L16.8,979.4a1.257,1.257,0,0,1-1.654,0Z" transform="translate(-10 -974.362)" fill="#fff"/>
    </g>
  </g>
</svg>
